<?xml version="1.0" encoding="utf-8"?>
<!-- Uploaded to: SVG Repo, www.svgrepo.com, Generator: SVG Repo Mixer Tools -->
<svg fill="#000000" width="800px" height="800px" viewBox="-8.5 0 32 32" version="1.1" xmlns="http://www.w3.org/2000/svg">
<title>pinterest</title>
<path d="M4.12 26.24c-0.080 0-0.2 0-0.28-0.040-0.44-0.16-0.68-0.64-0.52-1.080 0.48-1.4 1.32-4 2-6.56-0.4-0.68-0.6-1.48-0.68-2.48-0.12-1.96 0.6-5.64 2.080-5.8 0.24-0.040 1.040-0.040 1.28 1.24 0.28 1.44-0.2 4.040-0.88 6.68 0.32 0.28 0.8 0.44 1.36 0.44 3.080 0 4.76-3.040 4.76-5.88 0-2.44-1.24-5.28-4.72-5.28v0c-2.8 0-5.080 1.28-6.2 3.52-0.92 1.8-0.84 3.96 0.16 5.36 0.28 0.36 0.2 0.88-0.16 1.16s-0.88 0.2-1.16-0.16c-1.44-1.92-1.56-4.72-0.32-7.16 1.4-2.8 4.24-4.44 7.68-4.44v0c3.2 0 6.4 2.16 6.4 6.96 0 3.68-2.24 7.56-6.44 7.56-0.68 0-1.28-0.12-1.8-0.4-0.76 2.8-1.6 5.28-1.8 5.8-0.080 0.32-0.4 0.56-0.76 0.56z"></path>
</svg>